<svg width="24" height="20" viewBox="0 0 24 20" fill="none" xmlns="http://www.w3.org/2000/svg">
<g clip-path="url(#clip0_1_299)">
<path d="M7.33333 2.11671e-05C6.71146 -0.0148497 6.0929 0.0947918 5.51403 0.322496C4.93516 0.5502 4.40766 0.891369 3.96258 1.32593C3.5175 1.7605 3.16382 2.27968 2.92234 2.85295C2.68087 3.42621 2.55647 4.04197 2.55647 4.66402C2.55647 5.28607 2.68087 5.90183 2.92234 6.4751C3.16382 7.04836 3.5175 7.56754 3.96258 8.00211C4.40766 8.43667 4.93516 8.77784 5.51403 9.00555C6.0929 9.23325 6.71146 9.34289 7.33333 9.32802C7.9552 9.34289 8.57377 9.23325 9.15264 9.00555C9.73151 8.77784 10.259 8.43667 10.7041 8.00211C11.1492 7.56754 11.5028 7.04836 11.7443 6.4751C11.9858 5.90183 12.1102 5.28607 12.1102 4.66402C12.1102 4.04197 11.9858 3.42621 11.7443 2.85295C11.5028 2.27968 11.1492 1.7605 10.7041 1.32593C10.259 0.891369 9.73151 0.5502 9.15264 0.322496C8.57377 0.0947918 7.9552 -0.0148497 7.33333 2.11671e-05ZM4.66667 11.992C3.42899 11.992 2.242 12.4837 1.36683 13.3589C0.491665 14.234 0 15.421 0 16.6587L0 19.988H14.6667V16.6587C14.6667 15.421 14.175 14.234 13.2998 13.3589C12.4247 12.4837 11.2377 11.992 10 11.992H4.66667ZM16.6667 13.3334H16V20H20V16.6667C20 15.7826 19.6488 14.9348 19.0237 14.3097C18.3986 13.6845 17.5507 13.3334 16.6667 13.3334Z" fill="#BCC2C3"/>
<path d="M15.3333 5.33334C14.4493 5.33334 13.6014 5.68453 12.9763 6.30965C12.3512 6.93478 12 7.78262 12 8.66668C12 9.55073 12.3512 10.3986 12.9763 11.0237C13.6014 11.6488 14.4493 12 15.3333 12C16.2174 12 17.0652 11.6488 17.6904 11.0237C18.3155 10.3986 18.6667 9.55073 18.6667 8.66668C18.6667 7.78262 18.3155 6.93478 17.6904 6.30965C17.0652 5.68453 16.2174 5.33334 15.3333 5.33334Z" fill="#BCC2C3"/>
</g>
<defs>
<clipPath id="clip0_1_299">
<rect width="20" height="20" fill="white"/>
</clipPath>
</defs>
</svg>
