<svg width="24" height="24" viewBox="0 0 24 24" fill="none" xmlns="http://www.w3.org/2000/svg">
<g clip-path="url(#clip0_1_313)">
<rect x="9.80975" y="1.04166" width="15.6431" height="18.9952" rx="3.3521" transform="rotate(7.0583 9.80975 1.04166)" fill="#D9D9D9"/>
<rect x="0.238707" y="3.17946" width="16.8016" height="20.6414" rx="2.79342" transform="rotate(-8.70423 0.238707 3.17946)" fill="#D9D9D9" stroke="#131415" stroke-width="1.11737"/>
<path d="M5.43833 16.3762C5.41935 16.2523 5.49001 16.1197 5.63477 16.0079C5.77953 15.896 5.98652 15.8139 6.21022 15.7796L14.6448 14.4883C14.8685 14.4541 15.0906 14.4705 15.2622 14.5339C15.4338 14.5974 15.5408 14.7027 15.5598 14.8267C15.5788 14.9506 15.5081 15.0832 15.3634 15.195C15.2186 15.3069 15.0116 15.389 14.7879 15.4233L6.35336 16.7146C6.12966 16.7488 5.90759 16.7324 5.73599 16.669C5.56438 16.6055 5.45732 16.5002 5.43833 16.3762ZM6.4965 17.6496C6.2728 17.6838 6.06581 17.7659 5.92105 17.8778C5.77629 17.9897 5.70563 18.1222 5.72462 18.2462C5.7436 18.3702 5.85067 18.4755 6.02227 18.5389C6.19387 18.6024 6.41595 18.6188 6.63964 18.5845L10.0135 18.068C10.2372 18.0338 10.4442 17.9517 10.5889 17.8398C10.7337 17.7279 10.8043 17.5954 10.7854 17.4714C10.7664 17.3474 10.6593 17.2421 10.4877 17.1786C10.3161 17.1152 10.094 17.0988 9.87033 17.133L6.4965 17.6496Z" fill="#131415"/>
<path d="M5.57484 18.2474C5.55586 18.1234 5.62652 17.9909 5.77128 17.879C5.91604 17.7671 6.12303 17.685 6.34673 17.6508L14.7813 16.3595C15.005 16.3252 15.2271 16.3416 15.3987 16.4051C15.5703 16.4685 15.6774 16.5738 15.6963 16.6978C15.7153 16.8218 15.6447 16.9543 15.4999 17.0662C15.3551 17.1781 15.1481 17.2602 14.9244 17.2944L6.48987 18.5858C6.26617 18.62 6.0441 18.6036 5.87249 18.5401C5.70089 18.4767 5.59382 18.3714 5.57484 18.2474ZM6.63301 19.5207C6.40931 19.555 6.20232 19.6371 6.05756 19.749C5.9128 19.8608 5.84214 19.9934 5.86113 20.1173C5.88011 20.2413 5.98718 20.3466 6.15878 20.4101C6.33038 20.4735 6.55245 20.4899 6.77615 20.4557L10.15 19.9392C10.3737 19.9049 10.5807 19.8228 10.7254 19.7109C10.8702 19.599 10.9409 19.4665 10.9219 19.3426C10.9029 19.2186 10.7958 19.1133 10.6242 19.0498C10.4526 18.9864 10.2305 18.9699 10.0068 19.0042L6.63301 19.5207Z" fill="#131415"/>
<path d="M8.81139 4.79252C9.3635 4.70799 9.92657 4.84625 10.3767 5.17688C10.8269 5.50751 11.1273 6.00343 11.2118 6.55554C11.2964 7.10766 11.1581 7.67073 10.8275 8.1209C10.4968 8.57107 10.0009 8.87146 9.4488 8.95599C8.89669 9.04051 8.33362 8.90225 7.88344 8.57162C7.43327 8.24099 7.13288 7.74507 7.04836 7.19296C6.96383 6.64085 7.10209 6.07777 7.43272 5.6276C7.76336 5.17743 8.25928 4.87704 8.81139 4.79252ZM9.60816 9.99686C11.9085 9.64468 13.9142 10.291 14.0903 11.4412L14.2497 12.482L5.92275 13.7569L5.76339 12.716C5.58731 11.5658 7.30784 10.349 9.60816 9.99686Z" fill="#131415"/>
</g>
<defs>
<clipPath id="clip0_1_313">
<rect width="24" height="24" fill="white"/>
</clipPath>
</defs>
</svg>
