<svg width="24" height="24" viewBox="0 0 24 24" fill="none" xmlns="http://www.w3.org/2000/svg">
<rect x="4" y="1.88235" width="15.6471" height="19" rx="3.35294" fill="#D9D9D9"/>
<path d="M7.35291 13.4314C7.35291 13.3326 7.43141 13.2378 7.57114 13.168C7.71087 13.0981 7.90039 13.0588 8.09801 13.0588H15.549C15.7466 13.0588 15.9361 13.0981 16.0758 13.168C16.2156 13.2378 16.2941 13.3326 16.2941 13.4314C16.2941 13.5302 16.2156 13.625 16.0758 13.6948C15.9361 13.7647 15.7466 13.8039 15.549 13.8039H8.09801C7.90039 13.8039 7.71087 13.7647 7.57114 13.6948C7.43141 13.625 7.35291 13.5302 7.35291 13.4314ZM8.09801 14.549C7.90039 14.549 7.71087 14.5883 7.57114 14.6582C7.43141 14.728 7.35291 14.8228 7.35291 14.9216C7.35291 15.0204 7.43141 15.1151 7.57114 15.185C7.71087 15.2549 7.90039 15.2941 8.09801 15.2941H11.0784C11.276 15.2941 11.4655 15.2549 11.6053 15.185C11.745 15.1151 11.8235 15.0204 11.8235 14.9216C11.8235 14.8228 11.745 14.728 11.6053 14.6582C11.4655 14.5883 11.276 14.549 11.0784 14.549H8.09801Z" fill="#131415"/>
<path d="M7.22347 14.9047C7.22347 14.8059 7.30197 14.7111 7.4417 14.6412C7.58144 14.5714 7.77095 14.5321 7.96857 14.5321H15.4195C15.6172 14.5321 15.8067 14.5714 15.9464 14.6412C16.0861 14.7111 16.1646 14.8059 16.1646 14.9047C16.1646 15.0035 16.0861 15.0982 15.9464 15.1681C15.8067 15.238 15.6172 15.2772 15.4195 15.2772H7.96857C7.77095 15.2772 7.58144 15.238 7.4417 15.1681C7.30197 15.0982 7.22347 15.0035 7.22347 14.9047ZM7.96857 16.0223C7.77095 16.0223 7.58144 16.0616 7.4417 16.1314C7.30197 16.2013 7.22347 16.2961 7.22347 16.3949C7.22347 16.4937 7.30197 16.5884 7.4417 16.6583C7.58144 16.7282 7.77095 16.7674 7.96857 16.7674H10.1471C10.3447 16.7674 10.5342 16.7282 10.6739 16.6583C10.8137 16.5884 10.8922 16.4937 10.8922 16.3949C10.8922 16.2961 10.8137 16.2013 10.6739 16.1314C10.5342 16.0616 10.3447 16.0223 10.1471 16.0223H7.96857Z" fill="#131415"/>
<path d="M11.8235 4.11765C12.2682 4.11765 12.6946 4.29427 13.009 4.60867C13.3234 4.92307 13.5 5.34949 13.5 5.79412C13.5 6.23874 13.3234 6.66516 13.009 6.97956C12.6946 7.29396 12.2682 7.47059 11.8235 7.47059C11.3789 7.47059 10.9525 7.29396 10.6381 6.97956C10.3237 6.66516 10.1471 6.23874 10.1471 5.79412C10.1471 5.34949 10.3237 4.92307 10.6381 4.60867C10.9525 4.29427 11.3789 4.11765 11.8235 4.11765ZM11.8235 8.30882C13.676 8.30882 15.1765 9.05904 15.1765 9.98529V10.8235H8.47059V9.98529C8.47059 9.05904 9.97103 8.30882 11.8235 8.30882Z" fill="#131415"/>
<rect x="11.2647" y="11.3823" width="11.1765" height="11.1765" rx="5.58824" fill="#D9D9D9"/>
<rect x="11.2647" y="11.3823" width="11.1765" height="11.1765" rx="5.58824" stroke="#131415" stroke-width="1.11765"/>
<path d="M19.3406 13.8696L16.1216 18.1135L14.2185 16.2118L13.3403 17.0899L16.267 20.0167L20.3655 14.7477L19.3406 13.8696Z" fill="black"/>
</svg>
