<svg width="7" height="9" viewBox="0 0 7 9" fill="none" xmlns="http://www.w3.org/2000/svg">
<path d="M6.88333 2.03568L3.57778 0.517938C3.55345 0.506125 3.52689 0.5 3.5 0.5C3.47311 0.5 3.44655 0.506125 3.42222 0.517938L0.116667 2.03568C0.0824868 2.05107 0.0533155 2.07629 0.0326302 2.10833C0.0119449 2.14036 0.000618101 2.17786 0 2.21636V3.29243C0 5.26789 1.14333 7.66094 3.43 8.48807C3.47539 8.50398 3.52461 8.50398 3.57 8.48807C5.85667 7.66094 7 5.26789 7 3.29243V2.21636C6.99938 2.17786 6.98806 2.14036 6.96737 2.10833C6.94668 2.07629 6.91751 2.05107 6.88333 2.03568ZM5.32311 3.3647L3.26978 6.0637C3.23993 6.10261 3.20248 6.13459 3.15987 6.15756C3.11725 6.18053 3.07043 6.19397 3.02244 6.19701L3.00222 6.19781C2.9118 6.19765 2.82512 6.16055 2.76111 6.09462L1.70333 5.00249C1.63954 4.93647 1.60377 4.84698 1.60387 4.75373C1.60398 4.66047 1.63997 4.57107 1.70392 4.50521C1.76786 4.43935 1.85453 4.40241 1.94486 4.40252C2.03518 4.40264 2.12176 4.43979 2.18556 4.50581L2.97189 5.31768L4.788 2.93066C4.84478 2.86041 4.92583 2.81577 5.01396 2.8062C5.10209 2.79664 5.19036 2.82291 5.26004 2.87944C5.32972 2.93597 5.37533 3.01831 5.38717 3.10898C5.39902 3.19966 5.37618 3.29153 5.3235 3.3651L5.32311 3.3647Z" fill="#D5F105"/>
</svg>
