<svg width="12" height="12" viewBox="0 0 12 12" fill="none" xmlns="http://www.w3.org/2000/svg">
<path d="M6 6.25C5.53587 6.25 5.09075 6.43437 4.76256 6.76256C4.43437 7.09075 4.25 7.53587 4.25 8C4.25 8.46413 4.43437 8.90925 4.76256 9.23744C5.09075 9.56563 5.53587 9.75 6 9.75C6.46413 9.75 6.90925 9.56563 7.23744 9.23744C7.56563 8.90925 7.75 8.46413 7.75 8C7.75 7.53587 7.56563 7.09075 7.23744 6.76256C6.90925 6.43437 6.46413 6.25 6 6.25ZM5.25 8C5.25 7.80109 5.32902 7.61032 5.46967 7.46967C5.61032 7.32902 5.80109 7.25 6 7.25C6.19891 7.25 6.38968 7.32902 6.53033 7.46967C6.67098 7.61032 6.75 7.80109 6.75 8C6.75 8.19891 6.67098 8.38968 6.53033 8.53033C6.38968 8.67098 6.19891 8.75 6 8.75C5.80109 8.75 5.61032 8.67098 5.46967 8.53033C5.32902 8.38968 5.25 8.19891 5.25 8Z" fill="#BCC2C3"/>
<path d="M8.763 2.558L7.1735 0.329498L1.329 4.9985L1.005 4.995V5H0.75V11H11.25V5H10.769L9.812 2.2005L8.763 2.558ZM9.7125 5H4.6985L8.433 3.727L9.194 3.4835L9.7125 5ZM7.775 2.895L3.92 4.209L6.973 1.77L7.775 2.895ZM1.75 9.0845V6.9145C1.96109 6.84 2.15283 6.7192 2.31115 6.56096C2.46948 6.40272 2.59039 6.21105 2.665 6H9.335C9.40955 6.21114 9.53043 6.40291 9.68876 6.56124C9.84709 6.71957 10.0389 6.84045 10.25 6.915V9.085C10.0389 9.15955 9.84709 9.28043 9.68876 9.43876C9.53043 9.59709 9.40955 9.78886 9.335 10H2.666C2.59109 9.78884 2.46998 9.59707 2.31151 9.43868C2.15304 9.2803 1.9612 9.15929 1.75 9.0845Z" fill="#BCC2C3"/>
</svg>
